<svg xmlns="http://www.w3.org/2000/svg" width="100" height="100" viewBox="0 0 100 100">
  <!-- Background Circle -->
  <circle cx="50" cy="50" r="50" fill="#2D4059"/>
  
  <!-- Chef Hat -->
  <path d="M50,15 C40,15 40,25 45,25 C35,25 35,40 45,40 L55,40 C65,40 65,25 55,25 C60,25 60,15 50,15 Z" fill="#EEEEEE"/>
  
  <!-- Face -->
  <circle cx="50" cy="55" r="20" fill="#FFE0B2"/>
  
  <!-- Eyes -->
  <circle cx="42" cy="50" r="3" fill="#2D4059"/>
  <circle cx="58" cy="50" r="3" fill="#2D4059"/>
  
  <!-- Smile -->
  <path d="M40,60 Q50,70 60,60" fill="none" stroke="#2D4059" stroke-width="2" stroke-linecap="round"/>
  
  <!-- Mustache -->
  <path d="M35,58 Q45,62 50,58 Q55,62 65,58" fill="none" stroke="#2D4059" stroke-width="2"/>
  
  <!-- Chef Coat Collar -->
  <path d="M30,75 L50,85 L70,75 L70,95 L30,95 Z" fill="#EEEEEE"/>
  
  <!-- Chef Coat Buttons -->
  <circle cx="45" cy="80" r="2" fill="#FF9F1C"/>
  <circle cx="55" cy="80" r="2" fill="#FF9F1C"/>
  
  <!-- CulinaryMuse Badge -->
  <circle cx="50" cy="88" r="5" fill="#00ADB5"/>
  <text x="50" y="90" font-family="Arial" font-size="6" text-anchor="middle" fill="#EEEEEE">CM</text>
</svg> 