<svg xmlns="http://www.w3.org/2000/svg" width="300" height="200" viewBox="0 0 300 200">
  <!-- Background -->
  <rect width="300" height="200" fill="#2D4059" />
  
  <!-- Plate -->
  <ellipse cx="150" cy="120" rx="120" ry="60" fill="#EEEEEE" />
  <ellipse cx="150" cy="120" rx="110" ry="50" fill="#E0E0E0" />
  
  <!-- Pasta -->
  <g fill="#FFF6D5">
    <!-- Spaghetti strands -->
    <path d="M90,80 C110,90 130,70 150,90 C170,110 190,90 210,100" stroke="#FFF6D5" stroke-width="6" fill="none" />
    <path d="M80,90 C100,100 120,80 140,100 C160,120 180,100 200,110" stroke="#FFF6D5" stroke-width="6" fill="none" />
    <path d="M70,100 C90,110 110,90 130,110 C150,130 170,110 190,120" stroke="#FFF6D5" stroke-width="6" fill="none" />
    <path d="M60,110 C80,120 100,100 120,120 C140,140 160,120 180,130" stroke="#FFF6D5" stroke-width="6" fill="none" />
    <path d="M80,120 C100,130 120,110 140,130 C160,150 180,130 200,140" stroke="#FFF6D5" stroke-width="6" fill="none" />
    <path d="M90,130 C110,140 130,120 150,140 C170,160 190,140 210,150" stroke="#FFF6D5" stroke-width="6" fill="none" />
  </g>
  
  <!-- Garlic and Oil -->
  <circle cx="120" cy="90" r="8" fill="#FFFFFF" />
  <circle cx="140" cy="100" r="8" fill="#FFFFFF" />
  <circle cx="160" cy="95" r="8" fill="#FFFFFF" />
  
  <!-- Oil Drops -->
  <circle cx="130" cy="110" r="3" fill="#FFD700" opacity="0.7" />
  <circle cx="150" cy="120" r="3" fill="#FFD700" opacity="0.7" />
  <circle cx="170" cy="100" r="3" fill="#FFD700" opacity="0.7" />
  <circle cx="120" cy="130" r="3" fill="#FFD700" opacity="0.7" />
  <circle cx="180" cy="120" r="3" fill="#FFD700" opacity="0.7" />
  
  <!-- Red Pepper Flakes -->
  <circle cx="125" cy="115" r="2" fill="#FF4500" />
  <circle cx="145" cy="105" r="2" fill="#FF4500" />
  <circle cx="165" cy="125" r="2" fill="#FF4500" />
  <circle cx="185" cy="115" r="2" fill="#FF4500" />
  
  <!-- Parsley -->
  <path d="M110,80 C105,70 115,70 110,80 Z" fill="#00AA00" />
  <path d="M130,70 C125,60 135,60 130,70 Z" fill="#00AA00" />
  <path d="M170,80 C165,70 175,70 170,80 Z" fill="#00AA00" />
  <path d="M190,75 C185,65 195,65 190,75 Z" fill="#00AA00" />
  
  <!-- Fork -->
  <path d="M230,160 L250,140 L260,150 L240,170 Z" fill="#C0C0C0" />
  <path d="M240,170 L220,190" stroke="#C0C0C0" stroke-width="3" fill="none" />
</svg> 