<svg xmlns="http://www.w3.org/2000/svg" width="120" height="120" viewBox="0 0 120 120">
  <defs>
    <linearGradient id="gradient" x1="0%" y1="0%" x2="100%" y2="100%">
      <stop offset="0%" stop-color="#4a6fa5" />
      <stop offset="100%" stop-color="#34517e" />
    </linearGradient>
  </defs>
  <circle cx="60" cy="60" r="56" fill="white" stroke="url(#gradient)" stroke-width="6" />
  <g transform="translate(30, 30) scale(0.05)">
    <path fill="#f47c3c" d="M832 64h-82.4c-17.3-20-42.8-32-70.3-32-17.5 0-34.3 4.8-48.8 13.8l-53.7-13.4c-15.5-3.9-31.4 0.7-42.7 12l-29 29c-7.2-1.8-14.4-2.8-21.6-3.1C480.7 31.1 468.3 0 427.5 0c-15.3 0-30.7 4.9-43.6 14.3L377 4.8C367.3 1.7 357.5 0 347.9 0c-35.2 0-64 28.8-64 64v8H192C86 72 0 158 0 264v656c0 8.8 7.2 16 16 16h832c8.8 0 16-7.2 16-16V80c0-8.8-7.2-16-16-16zM628.3 80c10.4 0 20 4.9 26.1 13.4l5.4 7.5 81.1 20.3 12.5-12.5L795 118l-10.7 32H724.7L708 121.4c-4.3-7.5-12.5-12.3-21.3-12l-30.5 1.2-25.3-7.5-9.3-17.1 6.7-6zM400 61c3.5 21 16.2 39.9 34.6 51.5C445.9 146.4 480 184 480 192c0 5.9-8.5 13.3-21.3 19l5.3 8c47-23.5 48-44.2 48-51 0-31-38.6-67.9-38.7-68l-1.4-1.5c-13.9-15.2-13.2-38.4 1.6-52.5 9.7-9.3 25.1-9.3 34.8 0l23.8 23c2.9 2.8 7.2 3.6 11 2.2L558 65c-19.5-4.9-39.9-2.7-57.9 6.4-20.9 10.5-36.3 28.6-43.8 50.6H168.2c3.2-35.2 32.9-62 68.5-62h184.2l-13.9 5.2c-15.5 5.9-31.5 8.9-47.9 8.9-81.6 0-142.5-55.8-156.1-62.3 9.3-7.5 21-11.7 33.1-11.7 16.9 0 32.5 7.9 42.5 21.5l5.8 7.9H368c9.8 0 17.9 7.5 18.9 17.1l6.1 19.4h7V64c0-1.7 1.3-3 3-3 0.5 0 1 0.1 1.5 0.4l6.5 3.2c-3.3 9.8-5.8 19.7-7.6 29.7-1.4-11.1-2.1-22.4-3.4-33.3zM800 896H64V393.5h736V896zM800 347.5H64V264c0-70.6 57.4-128 128-128h448.7l25.2 34.9 26.5 7.9 36.8-1.5L749 217.3l14.3 24.9H800v105.3z" />
    <path fill="#f47c3c" d="M576 703.4c0-45.2-24.1-85.6-62.2-106.9L376 513.4V312c0-22.1-17.9-40-40-40s-40 17.9-40 40v201.4l-137.8 83.1c-38.1 21.3-62.2 61.6-62.2 106.9V784c0 22.1 17.9 40 40 40h400c22.1 0 40-17.9 40-40v-80.6zM512 784H176v-80.6c0-18.5 10-35.3 26.2-44.2l56.5-34.1 0.3 39c0 20.2 16.4 36.6 36.6 36.6h74.9c20.2 0 36.6-16.4 36.6-36.6v-39l78.7 47.5c16.2 8.9 26.2 25.7 26.2 44.2V784zM336 664.7h-40v-88.7l40 24.2v64.5zM336 553l-80-48.3c-6.5-3.9-14.8-3.9-21.2 0L176 551.5v-88.1l79.9-48.3c6.5-3.9 10.3-10.9 10.1-18.4V312c0-4.4 3.6-8 8-8s8 3.6 8 8v84.6c-0.2 7.5 3.7 14.5 10.1 18.4l44 26.5-0.1 111.5z" />
  </g>
</svg> 