<svg xmlns="http://www.w3.org/2000/svg" width="100" height="100" viewBox="0 0 100 100">
  <!-- Background Circle -->
  <defs>
    <linearGradient id="avatarGradient" x1="0%" y1="0%" x2="100%" y2="100%">
      <stop offset="0%" stop-color="#FF9F1C" />
      <stop offset="100%" stop-color="#F76E11" />
    </linearGradient>
  </defs>
  
  <circle cx="50" cy="50" r="50" fill="url(#avatarGradient)"/>
  
  <!-- Head Silhouette -->
  <circle cx="50" cy="40" r="20" fill="#EEEEEE"/>
  
  <!-- Body Silhouette -->
  <path d="M30,85 C30,65 70,65 70,85 L70,95 L30,95 Z" fill="#EEEEEE"/>
  
  <!-- Generic Face Features -->
  <circle cx="42" cy="35" r="2.5" fill="#444444"/>
  <circle cx="58" cy="35" r="2.5" fill="#444444"/>
  <path d="M42,50 C46,55 54,55 58,50" fill="none" stroke="#444444" stroke-width="2" stroke-linecap="round"/>
  
  <!-- Generic Hair -->
  <path d="M30,30 Q35,15 50,15 Q65,15 70,30 Q70,40 65,45 Q60,35 50,35 Q40,35 35,45 Q30,40 30,30 Z" fill="#555555"/>
  
  <!-- Cooking Apron Hint -->
  <path d="M40,75 L50,85 L60,75" fill="none" stroke="#EEEEEE" stroke-width="3" stroke-linecap="round"/>
  
  <!-- Foodie Badge -->
  <circle cx="70" cy="70" r="10" fill="#00ADB5"/>
  <text x="70" y="73" font-family="Arial" font-size="7" text-anchor="middle" fill="#FFFFFF" font-weight="bold">FD</text>
</svg> 